<?xml version="1.0" encoding="UTF-8"?>
<svg xmlns="http://www.w3.org/2000/svg" version="1.1" viewBox="0 0 1512.9 1512.9">
  <defs>
    <style>
      .cls-1 {
        fill: #fff;
        fill-rule: evenodd;
      }
    </style>
  </defs>
  <!-- Generator: Adobe Illustrator 28.7.3, SVG Export Plug-In . SVG Version: 1.2.0 Build 164)  -->
  <g>
    <g id="Layer_1">
      <g id="Layer_2">
        <g id="Layer_2-2">
          <g id="Layer_1-2" focusable="false">
            <path class="cls-1" d="M868.9,569.4c40-19.9,90.8-49.3,141.8-89.5,10.7,22.3,11.9,41.8,6.4,57.5-3.9,11.1-11.3,20.7-21,28.4-10.5,8.3-23.7,14.3-38.2,17.6-27.6,6.2-59.7,2.6-88.9-13.9M875.8,773.7l52.9,30.6c-108,60.6-137.4,173-172.3,282.5-34.9-109.5-64.3-222-172.3-282.5l52.9-30.6c10.5-4,17.3-14.2,16.7-25.5-4.9-102.6,22.8-147.9,60.2-176.4,13.4-10.2,28-15.3,42.5-15.3s29.1,5.1,42.5,15.3c37.4,28.5,65,73.8,60.2,176.4-.5,11.2,6.2,21.5,16.7,25.5h0ZM756.4,103.9c61.2,1.6,122.5,13.5,175.7,36.6,36.9,16,71.2,37.2,102.4,62.5,14.1,11.4,25.6,22.5,38.4,35.2,34.4,1.2,84.7-37,108-72.8-40.2,131.7-223.5,287.2-350.4,346.7h0c-22.8-17.4-48.4-26.1-74-26.1s-51.2,8.7-74,26.1h0c-126.9-59.5-310.2-215-350.4-346.7,23.3,35.8,73.6,74,108,72.8,12.8-12.7,24.3-23.7,38.4-35.2,31.1-25.3,65.5-46.5,102.4-62.5,53.2-23.1,114.5-35,175.7-36.6M644,569.4c-40-19.9-90.8-49.3-141.8-89.5-10.7,22.3-11.9,41.8-6.4,57.5,3.9,11.1,11.3,20.7,21,28.4,10.5,8.3,23.7,14.3,38.2,17.6,27.6,6.2,59.7,2.6,88.9-13.9"/>
            <path class="cls-1" d="M1066.4,430.7c28-28.3,52.7-59.6,72.6-87.6l10.1,19c32.5,65,49.4,129.7,49.4,202.5v115.6l.5,59.9c2.3,147.1,34.2,295.9,106.3,432.1l-150.8-121.6-106.7,173.2-112.1-105.5-179.2,290.8-179.2-290.8-112.1,105.5-106.7-173.2-150.8,121.6c72.1-136.2,103.9-285,106.3-432.1l.6-59.9v-115.6c0-72.8,16.8-137.6,49.3-202.5l10.1-19c19.9,27.9,44.6,59.3,72.6,87.6l-8.8,18.2c-17,35.3-22.6,74.8-9.4,112.4,8.5,24.2,24.1,44.9,44.2,60.8,19.5,15.4,42.6,25.7,66.8,31.2,15.8,3.5,31.8,5,47.7,4.5-3.7,21.1-5.3,43-5.4,65.2l-142.3,82.2,109.8,61.5c8.8,4.9,17.1,10.6,25,16.9,90.5,81.3,144.9,321.7,182.3,439.2,37.4-117.4,91.8-357.9,182.3-439.2,7.8-6.3,16.2-11.9,25-16.9l109.8-61.5-142.3-82.2c0-22.3-1.7-44.2-5.4-65.2,15.9.5,32-1,47.7-4.5,24.2-5.4,47.3-15.8,66.8-31.2,20.1-15.8,35.7-36.6,44.2-60.8,13.2-37.6,7.6-77.1-9.4-112.4l-8.8-18.2h0Z"/>
          </g>
        </g>
      </g>
    </g>
  </g>
</svg>