<?xml version="1.0" encoding="UTF-8"?>
<svg id="Layer_2" xmlns="http://www.w3.org/2000/svg" version="1.1" viewBox="0 0 1956.2 1971.5">
  <!-- Generator: Adobe Illustrator 29.1.0, SVG Export Plug-In . SVG Version: 2.1.0 Build 142)  -->
  <defs>
    <style>
      .st0 {
        fill: #fff;
      }

      .st1 {
        fill: #16403e;
      }

      .st2 {
        fill: #238a64;
      }

      .st3 {
        fill: #54d592;
      }
    </style>
  </defs>
  <g id="Layer_5">
    <path class="st3" d="M1238.3,1246.8c21.2,162.4-273.1,428.2-563,382.6-163.1-25.7-344.9-153.1-368-325.3-18.4-136.8,70.8-246,173.7-371.9,75.8-92.8,144.1-176.3,231.1-172.4,77.2,3.5,104,72.9,236.4,209.8,197.5,204.2,279.2,195.9,289.8,277.3Z"/>
    <path class="st0" d="M1681,784.5c-27.9,120-99.4,197.6-197.3,304-67.2,73.1-131.4,125.6-177.8,160-197.3-183.7-394.7-367.4-592-551.1,37.6-62.1,99.9-151.9,195.6-241.8,118.9-111.6,211.1-198.4,352-206.2,126.6-7.1,262.9,51.1,348.4,161.8,121.4,157,78.9,339.9,71.1,373.3h0Z"/>
  </g>
  <g id="Layer_2-2">
    <g id="Layer_1-2">
      <path class="st1" d="M1258,221.6c-3.6.4-12.8,1.2-20.4,1.9s-14.9,1.5-16.3,1.9-5.4,1-8.9,1.5c-6.2.9-18.8,3.6-38.9,8.5-9.9,2.4-30,8.9-37.8,12.1-2,.8-6.9,2.7-10.7,4.2s-8.9,3.6-11.2,4.7-5.4,2.4-7,3c-7.8,2.5-41.2,21.2-55.3,30.9-3.1,2.1-5.8,3.9-6.1,3.9-1.8,0-33.2,24.4-46.9,36.6-21.4,19-74.9,71.5-106.8,104.8-8.7,9.1-18.6,19.5-21.8,23-3.3,3.5-7.5,7.9-9.2,9.9s-5,5.5-7.2,7.8c-2.2,2.3-6.4,6.7-9.2,9.7s-8.4,8.9-12.4,13c-3.8,4.1-10.7,11.4-15.2,16.3-4.4,4.9-10.5,11.4-13.3,14.4-2.9,3-7.1,7.5-9.3,10-2.3,2.4-8.6,9.2-14.1,15.2-9,9.8-15.8,17.2-27.3,29.9-2.2,2.4-6.2,6.8-8.9,9.7-6.7,7.2-19,20.7-23,25.2-1.8,2-3.5,3.8-3.7,4.1s-3,3.3-6.3,7c-3.2,3.6-8.2,9.2-11.2,12.2-2.9,3-6.4,6.9-7.8,8.5-4.4,5.2-22.2,25-28.7,31.8-8.1,8.4-11.8,12.5-18.6,20.4-3,3.5-6,6.8-6.7,7.4s-7.3,7.8-14.8,15.9c-7.5,8.1-14.1,15.3-14.8,15.9-.6.6-2.7,3-4.7,5.2s-7.2,7.9-11.5,12.5c-4.3,4.7-10,10.9-12.7,13.7-2.7,2.9-9.8,10.9-15.9,17.8-6.1,6.9-14.9,16.6-19.6,21.5-21.5,22.4-30.8,32.3-39.9,42.6-7.8,8.8-14,15.4-26.3,28.1-12.4,12.9-17.1,17.9-25.2,27-3.6,4.1-7.6,8.4-8.8,9.6-1.3,1.3-5.1,5.4-8.6,9.2-9.5,10.6-19.2,21.2-26.7,29.2-2.7,2.8-7.7,8.4-11,12.4-3.3,4-6.4,7.2-6.7,7.2s-3.9,3.7-7.9,8.2-7.7,8.7-8.1,9.1c-13.5,14.7-30,36.3-39.5,51.9-3,4.9-6.2,10.1-7.1,11.5-4.2,6.7-20.4,37.4-20.4,38.8s-1.9,4.2-4.1,9c-2.2,4.8-4.1,8.9-4.1,9.2,0,.5-4.4,11.2-6.3,15.2-.5,1.2-3.5,9.8-6.7,19.2-5.4,16.3-9,29.6-13.2,48.9-1.1,4.9-2.6,11.7-3.4,15.2s-2,11-2.6,16.7c-.7,5.7-1.6,13.7-2.2,17.8-1,7.2-1.8,15.2-3.4,38.9-1.3,18.6.2,44.9,4.5,76.6,5,37.5,14.4,73,27.4,104.8,2.1,5.1,4.4,11,5.3,13.1,2.4,6.2,20.8,42.7,27,53.5,3.1,5.4,7.9,13.2,10.5,17.3,2.7,4.2,6.1,9.3,7.5,11.6,1.4,2.2,3,4.4,3.4,5,.4.4,1.9,2.6,3.3,4.7,1.4,2.2,4.6,6.4,7,9.5,5.5,7.2,12.5,15.9,13,16.4.2.2,3,3.6,6.3,7.4,14.3,17.1,48.3,49.4,68.7,65.1,4.1,3.2,6.1,4.6,15.9,11.6,4.9,3.5,20.6,13.4,27.2,17.2,2.4,1.4,5.6,3.3,7,4.1,3.9,2.2,27.8,14.1,32.9,16.4,16.4,7.2,52.6,19.6,69.2,23.7,12.4,3,31.8,7.1,35.5,7.5,2.2.2,8.6,1,14.1,1.8s16.1,1.8,23.7,2.2,15.7.9,18.1,1.1c11,.9,23.9,1.1,35.2.4,25.4-1.6,45.2-3.1,46.8-3.7,1-.4,4.9-1,8.7-1.6,21-2.7,44.9-8.4,66.6-15.9,5.1-1.8,11-3.7,13-4.4,5.4-1.7,12.4-4.1,14.1-4.9.8-.4,4.8-2,8.9-3.6,4.1-1.6,10.6-4.4,14.4-6.3,3.8-1.8,8.5-4,10.4-4.8,1.8-.9,4.7-2.4,6.3-3.3s5-2.9,7.4-4.2c10.4-5.6,11.5-6.3,11.5-6.9s.4-.5,1-.5,3.3-1.6,6.1-3.4c2.9-1.8,7.7-4.9,10.7-6.7,8.1-4.9,25-17.4,30.3-22.4.7-.6,3.2-2.8,5.5-4.8,16-13.5,60-56.1,82.2-79.6,3.3-3.5,11.2-11.9,17.8-18.9,6.5-6.9,15-15.8,18.9-20,10.7-11.1,19.9-20.9,24.9-26.3,2.4-2.7,8.7-9.5,13.9-15.2,5.3-5.7,15.2-16.4,22.2-23.7s15-15.8,17.8-18.9c5.6-6,13.9-14.9,22.1-23.7,5.1-5.6,15.5-16.9,18.3-20.1.8-1,3.3-3.7,5.6-6.1,2.3-2.4,6-6.4,8.2-8.9s5.9-6.4,8.1-8.9c2.3-2.4,6-6.4,8.2-8.9,2.2-2.4,7.2-8,11.2-12.2,3.9-4.3,9.4-10.4,12.2-13.7,2.8-3.3,5.8-6.6,6.6-7.5,1.6-1.6,9.7-10.6,22.6-24.7,4.3-4.7,10.3-11.2,13.3-14.4,3.1-3.3,8.1-8.7,11.1-12.2,3-3.5,7.8-8.6,10.4-11.5,2.7-2.8,8.7-9.6,13.3-14.8,4.6-5.3,8.6-9.8,8.8-10s2.9-3.2,5.9-6.7c8.1-9.1,14.9-16.6,31.5-34.1,8.6-9.2,17.5-18.8,28.9-31.4,3.7-4.1,7.3-8.1,8.1-9,.8-.8,4.4-4.7,7.8-8.5,21.3-23.5,32.7-35.9,37.6-41.1,3.1-3.3,7.1-7.6,8.9-9.6,1.8-2.1,5.8-6.4,8.9-9.7,3.1-3.3,7-7.4,8.5-9.2,1.6-1.8,5-5.4,7.4-8.1,2.5-2.7,8.2-8.8,12.7-13.7,17.2-18.8,27.5-29.8,35.9-38.6,3.8-4,9.8-10.4,13.3-14,3.5-3.7,11.3-12.3,17.4-19.2,6.1-6.9,12.9-14.6,15.2-17,2.3-2.4,6.6-7.2,9.6-10.7,3-3.4,6.2-7,7-7.8,10.1-10.6,32.1-39.5,40.3-52.8,10.7-17.3,27-50.2,34.5-69.2,1.1-2.9,2.4-6.2,3-7.4,1.5-3.3,8.2-23.7,10.1-30.4,4.1-15.1,10.6-45.8,11.4-54.3.3-2.7,1.2-9.2,1.9-14.4,3.6-23.4,4.5-97.9,1.8-129.5-1-10.7-6.4-40.6-10.4-57.1-3.5-14.2-8.7-31.9-12.1-41.5-.7-2.1-2.4-6.7-3.7-10.4-5.3-15-22.9-52-32.3-67.6-5.8-9.7-15.9-25.4-17.3-27-.4-.4-3-4.1-5.8-8-2.7-3.9-7-9.5-9.4-12.6-2.4-3-5.6-7-7-8.8-4.9-6.2-19.1-21.8-30.5-33.4-9.5-9.5-14.9-14.7-27.6-26.2-.8-.8-17.1-13.7-22.3-17.8-9.2-7.1-29.2-20.1-51.1-33.1-5.8-3.5-25.2-13.1-31.8-15.8-2.8-1.2-5.5-2.4-5.9-2.7-1.3-.9-16.9-7.2-26.4-10.6-11.6-4.2-23.8-7.8-39.1-11.5-24.9-6-30.4-6.8-61.8-9-13.8-1-70.2-1.5-79.2-.7h0ZM1319.1,288.6c13.5,1.3,31,3.8,37.4,5.1,2.9.6,7.7,1.5,10.7,2.1s7.7,1.6,10.4,2.3c2.7.7,6.3,1.5,8.1,1.9,7.2,1.4,24,6.4,28.7,8.6,1.3.6,2.7,1,3.1,1s2.2.7,3.9,1.4c24.1,10.9,31.8,14.5,41.7,20,2.1,1.2,7.4,4,11.8,6.4,9.3,4.9,29.3,17.8,37.5,24.4,1,.9,2.6,2.1,3.4,2.7,20,15.3,51.8,46.8,61.9,61.3,1.6,2.3,4.5,6.1,6.4,8.5,2,2.4,5.5,7.2,7.8,10.7,2.3,3.5,5.4,8.2,6.8,10.4,7,10.6,14.6,23.5,18.1,30.8,5.4,11,9.4,19.5,9.4,20s3.3,7.8,6.7,14.8c3,6.5,7.5,17.8,9,23.3.8,2.7,2.4,8.4,3.6,12.9,1.2,4.4,2.4,8.4,2.7,8.9.3.4.7,2.1,1,3.8.5,2.4,2.7,12.1,5.4,23.3.6,2.4,1.9,12.7,2.7,21.1.4,4.9,1.1,9.2,1.4,9.6,1.2,1.6,2.6,28.7,2.6,50.7,0,22.7-.9,38.3-3,55.5-.5,4.7-1.4,12.1-1.8,16.7-.5,4.4-1.3,10-1.9,12.2-1.8,7.5-4.1,17.4-5,22.2-.5,2.7-1.6,6.9-2.5,9.5-.9,2.5-1.6,5.1-1.6,5.8s-.4,1.8-.9,2.7c-.4.9-1,2.2-1,2.7-.2,1.4-3.1,10.2-4,12.2-.4.8-1.2,3.3-1.8,5.5s-1.5,4.6-1.8,5.2-1.8,4.1-3.4,7.8c-1.6,3.6-4.6,10.4-6.7,15.1-2.2,4.6-4,8.5-4,8.7s-1.4,2.7-3,5.6c-1.7,3-4,7-5,9-4.2,7.8-10.6,18.1-14.3,23.1-1.6,2.2-2.8,4.2-2.8,4.4s-.6,1.2-1.3,1.8c-.7.6-2.2,2.3-3.2,3.6-1,1.4-3.9,4.9-6.4,7.8-2.6,3-4.7,5.5-4.7,5.6s-1.9,2.2-4.2,4.7c-2.4,2.4-5.4,5.7-6.8,7.3-3.5,4.2-19.4,21-30.4,32.2-12.3,12.5-38.3,39.6-45.2,47-3,3.3-9.3,9.9-14,14.8-17.5,18.3-34,35.8-41.1,43.6-.4.4-7.4,8-15.6,16.7-8.1,8.7-17.8,19.2-21.3,23.3-3.5,4.1-6.7,7.7-7.1,8.1-.4.4-2.8,3-5.4,5.8-2.6,2.9-7.3,8-10.7,11.5-3.3,3.6-9.5,10.2-13.6,14.9-4.2,4.7-10.2,11.2-13.2,14.6-3.1,3.3-6.8,7.4-8.2,9-3.6,3.9-19.2,20.7-25.5,27.2-11.1,11.5-12.9,13.6-12.9,14.3s-.3.8-.7.8-3.2,2.5-6.3,5.6l-5.6,5.5-2.6-3.1c-6.1-7.3-63.2-62.3-74.5-71.7-2.7-2.2-6.6-5.7-8.7-7.8-2.2-2.1-10.3-9.9-18.1-17.4-16.5-15.8-15.7-15.1-57.6-56.6-42.6-42.2-58.7-57.9-67.7-65.9-8.7-7.8-64.2-61.5-81.8-79.2-18.5-18.7-37.5-36.7-51.1-48.6-6.7-5.8-16.1-14.5-20.8-19.2s-13.4-13-19.2-18.4-16.8-16.1-24.4-23.5c-7.5-7.5-19.5-19.1-26.7-25.9-13.4-13-42-40.9-66.2-65-14-13.8-24.7-25.5-24.7-26.9s1.5-2.3,3.5-4.3c1.9-2,6.1-6.4,9.2-9.9,3.3-3.5,8.1-8.7,10.8-11.5,2.7-2.9,6.6-7.2,8.6-9.6s4.1-4.7,4.5-5c.5-.4,4-4,7.8-8.1,3.8-4.2,9.2-10.1,12.1-13.2,15.8-16.8,24.3-26,28.6-30.7,2.6-2.9,9.2-10,14.8-15.9,31.7-33.8,39.7-42.3,48.5-52.2,7.5-8.5,17.5-19,33-34.8,6.7-7,14.1-14.6,16.3-17,13.6-15.1,18.4-20.4,24.3-26.4,3.4-3.6,6.7-7.2,7.4-8.1.6-.9,2.6-3.1,4.5-5,1.8-1.9,7.4-7.8,12.4-13,25.1-27,49-49.8,67.6-64.3,3-2.4,6.2-5,7-5.8s3-2.4,4.8-3.6c1.8-1.2,4.9-3.3,6.7-4.6,12.1-8.4,32.1-19.7,48.4-27.3,24.6-11.5,44.3-18.8,68.8-25.3,14.7-3.9,20.5-5,38.5-7.5,7.3-1,14.4-2.1,15.6-2.3,10.4-2.3,49.5-3.2,66.2-1.4h0ZM696,765.7c.9.5,2.2,1.4,2.9,2.1s4.3,3.8,8,7.1c8.1,7,12.7,11.5,35,33.4,9.2,9.1,16.8,16.4,16.8,16.1s2.2,1.7,5,4.3c2.7,2.6,7.2,6.9,10.1,9.5,2.8,2.6,6.8,6.4,9,8.4,10.4,10,43.6,42.2,55.5,53.7,15.3,15,18.4,17.9,30.1,29.2,24.1,23.1,44.5,42.8,56,54,24.1,23.6,26.9,26.3,27.2,26.3s5.5,5.1,12,11.3c6.4,6.3,15.1,14.7,19.4,18.7,4.3,4,12.8,12.2,18.9,18.1,6.1,5.9,12.7,12.2,14.7,14.1,2,1.8,7.2,6.8,11.8,11.2,4.5,4.4,8.4,8,8.8,8s1.2.7,1.9,1.6c.7,1,3,3.2,5,5,2.1,1.8,10.7,10.1,19.3,18.5,8.6,8.4,19.4,18.7,24,23s12.7,11.9,17.9,17c5.3,5.1,12.4,11.8,15.6,14.8,9.6,8.7,42,41.4,42,42.3s-.8,1.5-1.9,2.3c-1,.8-3.1,3.2-4.7,5.3-1.6,2.1-3.7,4.7-4.8,6-1.1,1.2-3,3.5-4.3,5.1-1.3,1.6-3.6,4.1-5,5.6-1.4,1.5-4.4,4.7-6.6,7.1-2.2,2.4-9,9.6-15.2,15.9-6.1,6.3-13.5,14.1-16.4,17.3-9.8,11-11.1,12.4-14.1,15.6-1.6,1.7-5,5.3-7.3,7.8-5.1,5.4-30.4,32.1-34.9,36.6-1.6,1.7-5.1,5.3-7.8,8.1-4.8,5.2-22.7,24.2-30.3,32.3-2.2,2.4-5.3,5.6-6.7,7.1s-5.8,6.3-9.6,10.5-9.2,10.1-11.8,12.9c-2.7,2.9-10,10.7-16.3,17.4-6.4,6.7-14.2,15-17.5,18.5-3.3,3.4-7.6,8.1-9.8,10.3s-3.9,4.3-4.1,4.6c-.3.9-15.6,17-21.2,22.4-6.1,5.9-7.5,7.2-15,13.8-3.4,3-7,6.4-8.1,7.4-3.3,3.3-13.5,12.1-17.7,15.2-2.2,1.6-5,3.8-6.3,5-2.3,2.1-22,15.6-25.6,17.5-1,.5-2.5,1.6-3.3,2.3-.8.7-2.9,1.9-4.7,2.7s-3.4,1.7-3.7,2.2c-.6.9-3.3,2.4-14.2,8-3.8,1.9-7.4,3.6-7.9,3.6s-3.5,1.2-6.8,2.6c-3.2,1.4-6.4,2.6-7.1,2.6s-2.2.4-3.2,1c-2.3,1.2-6.4,2.6-14.2,4.9-3,.9-7.5,2.2-10,3-9.1,2.7-18,4.8-32.9,7.4-34.7,6.1-61.4,7.5-87.4,4.3-21-2.5-25.1-3.1-36.3-5-9.2-1.6-31.4-6.9-33.8-8.1-.7-.4-4.6-1.4-8.7-2.4s-7.7-1.9-8.1-2.3c-.4-.3-2.9-1.1-5.5-1.8-2.7-.7-6.7-2.2-8.9-3.1-4-1.8-7.8-3.5-10.7-4.7-8.5-3.5-28.9-13.7-31.2-15.6-.8-.7-2.9-1.9-4.7-2.9s-3.9-2.2-4.5-2.7c-.6-.6-1.5-1-2.1-1s-3.5-1.8-6.7-4.1c-3.2-2.3-7.8-5.2-10.1-6.4-2.4-1.2-5-2.8-5.8-3.5-.8-.7-2.3-1.7-3.3-2.2-2.4-1.1-4.4-2.4-6.2-4.1-.8-.7-1.9-1.3-2.4-1.3s-1.4-.6-1.9-1.3c-.5-.7-3-2.7-5.4-4.6s-4.6-3.5-4.8-3.7-1.4-1.2-2.7-2.1c-8.1-5.6-38.9-35.8-47-46-2.4-3-5.2-6.4-6.1-7.4s-2.9-3.8-4.4-6.2c-1.5-2.4-3.3-4.9-3.9-5.5s-1.9-2.5-3-4.2c-1-1.7-2.1-3.2-2.4-3.4-.7-.5-6-8.7-8.4-13-3.9-7-5.9-10.3-7-11.5-.6-.6-1-1.5-1-1.9s-.4-1.2-1-1.6c-.6-.5-1.3-1.8-1.5-2.9-.2-1.1-1.3-3.7-2.3-5.8-1-2.1-1.8-4.2-1.8-4.7s-.4-1.8-1-2.8c-3.3-6.7-9.2-27.1-10.8-37.5-1.6-10.4-3.1-28.4-3.3-38.5-.2-14.9.8-50.2,1.7-56.3,1.4-9.8,3.1-20,4.1-24.8.6-2.7,1.8-8.5,2.6-12.9,1.5-8.4,5.6-24.3,11-42.9,1.9-6.6,8.5-25.5,9.5-27.5.4-.7,2.4-4.9,4.2-9.2,3.4-7.6,5.9-12.6,13.1-26.7,5.6-10.8,5.8-11.1,10-17.3,2.1-3.2,3.9-5.9,3.9-6.1s1.8-2.8,3.9-5.9c2.1-3,4.2-6.2,4.7-7,.4-.7,1.5-2.2,2.4-3.1.8-.9,1.5-2.1,1.5-2.5s.8-1.4,1.9-2.1,1.9-1.6,1.9-2.2.7-1.5,1.5-2.3c.9-.7,3-3.3,4.7-5.7,1.7-2.3,5.4-6.8,8.2-9.8,2.8-3.1,5.4-6.1,5.7-6.7.3-.6,1.1-1,1.6-1s1-.3.9-.6c-.1-.7,16-17.8,38.7-40.9,7.8-7.9,20.9-21.4,29.1-30,20.9-21.7,35.7-37,50.9-52.6,7.1-7.3,15.9-16.5,19.5-20.4,14.8-16,21.6-23.2,24.7-26.1,5.2-4.8,5.8-5.5,16.4-17.1,5.5-6.1,12.1-13.2,14.7-15.9,8.4-8.7,26.2-27.8,30.8-32.9,2.4-2.7,7.6-8.4,11.5-12.5,3.8-4.2,10.5-11.2,14.8-15.8,4.2-4.5,7.8-8.3,7.9-8.3.2,0,1,.3,1.8.7h0Z"/>
    </g>
  </g>
  <g id="Layer_4">
    <path class="st2" d="M340,1353.8c7.3,15,17.9,35,32.7,57.4,16.1,24.5,41.1,62.6,82.1,96.3,62.6,51.6,129,65.5,154.1,70.5,30,6,82.8,15.8,146.8-1.3,17.9-4.8,66.5-19.7,112.2-57.3,8.4-6.9,24.8-22.8,57.5-54.5,13.5-13.1,30.1-29.2,49.2-48.6,29.1-29.6,49.8-52.3,65.8-69.9,35.8-39.4,75.4-82.8,122.5-134.4,26,24.7,51.9,49.4,77.9,74.1-12.2,14.4-29.9,35.1-51.6,59.8-13.8,15.8-67.3,76.5-149.9,161.8-54.7,56.4-75.2,75.1-102.5,95.4-21.6,16-41.8,30.8-71.5,44.8-60.9,28.6-115,31.7-140.6,32.8-26.7,1.2-83.2,3.3-149.9-21.3-87.4-32.3-138.5-90.4-157.5-114.2-61.7-77.6-74-158.6-77.1-191.4h0Z"/>
  </g>
  <g id="Layer_6">
    <path class="st0" d="M542.7,1150.1c-11.1-5.3-25.5,5.4-32.1,12.8-6.1,6.8-16.1,22.5-9.3,31.6,4.5,5.9,15.3,7.7,21.9,3.9,6.6-3.8,4-10.3,11.8-18.8,7.9-8.7,15.7-7.4,17.2-13.6,1.4-5.7-3.5-13-9.4-15.8h0Z"/>
    <path class="st0" d="M482.5,1250.6c4.1-1.4,9-.6,12.7,1.8,14.6,9.7-2.1,38.7,2,83.9,3.3,35.8,17.4,58.1,8,64.8-5.2,3.8-13.9-.2-15.5-1-17.3-8.5-19.4-35.6-21.3-65.3-1.7-26.3-5-77.8,14-84.2h0Z"/>
    <path class="st0" d="M517.1,1454.5c-4.2,9,8.5,22,11.3,24.9,8,8.2,26.3,21.9,38.5,14.8,4.3-2.5,8.8-8.2,7.7-13-1.9-8.4-18.2-4.4-32.5-18-7.6-7.2-9.8-14.7-16.1-14.6-3.7,0-7.4,2.7-8.9,5.9h0Z"/>
  </g>
</svg>